<svg xmlns="http://www.w3.org/2000/svg" viewBox="0 0 233.41 157.47"><defs><style>.cls-1{fill:#232681;}.cls-2{fill:none;stroke:#232681;stroke-miterlimit:10;stroke-width:6px;}</style></defs><title>Roller</title><g id="Layer_2" data-name="Layer 2"><g id="Layer_1-2" data-name="Layer 1"><path class="cls-1" d="M59.61,6.06H56.89V3.34a3.34,3.34,0,0,0-6.69,0V6.06H47.49a3.34,3.34,0,1,0,0,6.69h2.71v2.71a3.34,3.34,0,0,0,6.69,0V12.74h2.71a3.34,3.34,0,0,0,0-6.69Z"/><path class="cls-1" d="M203.53,9.07h-1.84V7.23a2.27,2.27,0,0,0-4.53,0V9.07h-1.84a2.27,2.27,0,1,0,0,4.53h1.84v1.84a2.27,2.27,0,0,0,4.53,0V13.6h1.84a2.27,2.27,0,0,0,0-4.53Z"/><path class="cls-1" d="M189.7,144.73H187V142a3.34,3.34,0,0,0-6.69,0v2.71h-2.71a3.34,3.34,0,1,0,0,6.69h2.71v2.71a3.34,3.34,0,0,0,6.69,0v-2.71h2.71a3.34,3.34,0,0,0,0-6.69Z"/><path class="cls-2" d="M11.17,76.75H85a0,0,0,0,1,0,0V93.1a0,0,0,0,1,0,0H11.17A8.17,8.17,0,0,1,3,84.92v0a8.17,8.17,0,0,1,8.17-8.17Z"/><path class="cls-2" d="M90.49,67.75h11.88a0,0,0,0,1,0,0V102.1a0,0,0,0,1,0,0H90.49A5.54,5.54,0,0,1,85,96.55V73.3A5.54,5.54,0,0,1,90.49,67.75Z"/><path class="cls-2" d="M156.63,76.75h73.78a0,0,0,0,1,0,0V93.1a0,0,0,0,1,0,0H156.63a8.17,8.17,0,0,1-8.17-8.17v0A8.17,8.17,0,0,1,156.63,76.75Z" transform="translate(378.86 169.85) rotate(180)"/><path class="cls-2" d="M136.58,67.75h11.88a0,0,0,0,1,0,0V102.1a0,0,0,0,1,0,0H136.58A5.54,5.54,0,0,1,131,96.55V73.3A5.54,5.54,0,0,1,136.58,67.75Z" transform="translate(279.49 169.85) rotate(-180)"/><path class="cls-2" d="M102.37,60.6v76.32a11.15,11.15,0,0,0,11.15,11.15h6.37A11.15,11.15,0,0,0,131,136.92v-104a11.15,11.15,0,0,0-11.15-11.15h-6.37a11.15,11.15,0,0,0-11.15,11.15v2.43"/><line class="cls-2" x1="116.7" y1="148.07" x2="116.7" y2="58.87"/><line class="cls-2" x1="116.7" y1="45.87" x2="116.7" y2="54.53"/><circle class="cls-1" cx="102.37" cy="49.56" r="2.9"/></g></g></svg>