<svg xmlns="http://www.w3.org/2000/svg" viewBox="0 0 203 196.85"><defs><style>.cls-1{fill:none;stroke:#232681;stroke-miterlimit:10;stroke-width:6px;}.cls-2{fill:#232681;}</style></defs><title>Dumbbell</title><g id="Layer_2" data-name="Layer 2"><g id="Layer_1-2" data-name="Layer 1"><polyline class="cls-1" points="113.75 116.75 127.56 116.75 127.56 100.6 75.44 100.6 75.44 116.75 89.25 116.75"/><rect class="cls-1" x="3" y="100.6" width="22.88" height="16.14" rx="2.83" ry="2.83"/><rect class="cls-1" x="50.66" y="49.75" width="24.79" height="117.86" rx="2.83" ry="2.83"/><rect class="cls-1" x="25.88" y="70.72" width="24.79" height="75.91" rx="2.83" ry="2.83"/><rect class="cls-1" x="177.12" y="100.6" width="22.88" height="16.14" rx="2.83" ry="2.83" transform="translate(377.12 217.35) rotate(-180)"/><rect class="cls-1" x="127.55" y="49.75" width="24.79" height="117.86" rx="2.83" ry="2.83" transform="translate(279.89 217.35) rotate(-180)"/><rect class="cls-1" x="152.34" y="70.72" width="24.79" height="75.91" rx="2.83" ry="2.83" transform="translate(329.46 217.35) rotate(-180)"/><circle class="cls-2" cx="101.5" cy="116.75" r="2.9"/><line class="cls-1" x1="63.05" y1="49.75" x2="63.05" y2="93.67"/><line class="cls-1" x1="63.05" y1="98.67" x2="63.05" y2="108.67"/><line class="cls-1" x1="38.27" y1="71.71" x2="38.27" y2="86.67"/><line class="cls-1" x1="38.27" y1="92.34" x2="38.27" y2="98.67"/><path class="cls-2" d="M56.19,5.48H53.73V3a3,3,0,0,0-6,0V5.48H45.24a3,3,0,1,0,0,6h2.45V14a3,3,0,0,0,6,0V11.52h2.45a3,3,0,0,0,0-6Z"/><path class="cls-2" d="M191,24.82h-1.92V22.9a2.37,2.37,0,0,0-4.73,0v1.92h-1.92a2.37,2.37,0,1,0,0,4.73h1.92v1.92a2.37,2.37,0,0,0,4.73,0V29.55H191a2.37,2.37,0,0,0,0-4.73Z"/><path class="cls-2" d="M115.48,187.72h-1.95v-1.95a2.4,2.4,0,0,0-4.79,0v1.95H106.8a2.4,2.4,0,1,0,0,4.79h1.95v1.95a2.4,2.4,0,0,0,4.79,0v-1.95h1.95a2.4,2.4,0,0,0,0-4.79Z"/></g></g></svg>