<svg xmlns="http://www.w3.org/2000/svg" viewBox="0 0 209.2 220.11"><defs><style>.cls-1{fill:#232681;}.cls-2{fill:none;stroke:#232681;stroke-miterlimit:10;stroke-width:6px;}</style></defs><title>Pushup Bar</title><g id="Layer_2" data-name="Layer 2"><g id="Layer_1-2" data-name="Layer 1"><path class="cls-1" d="M95.93,85.06H93.81V82.94a2.61,2.61,0,0,0-5.21,0v2.12H86.49a2.61,2.61,0,1,0,0,5.21H88.6v2.12a2.61,2.61,0,0,0,5.21,0V90.27h2.12a2.61,2.61,0,0,0,0-5.21Z"/><path class="cls-1" d="M205.35,7h-3.12V3.84a3.84,3.84,0,0,0-7.69,0V7h-3.12a3.84,3.84,0,1,0,0,7.69h3.12v3.12a3.84,3.84,0,0,0,7.69,0V14.65h3.12a3.84,3.84,0,0,0,0-7.69Z"/><path class="cls-1" d="M111.71,205.45h-3.12v-3.12a3.84,3.84,0,0,0-7.69,0v3.12H97.78a3.84,3.84,0,1,0,0,7.69h3.12v3.12a3.84,3.84,0,0,0,7.69,0v-3.12h3.12a3.84,3.84,0,0,0,0-7.69Z"/><polygon class="cls-2" points="46.49 72.02 33.51 72.02 27.52 72.02 14.53 72.02 5.04 89.5 27.52 89.5 33.51 89.5 55.98 89.5 46.49 72.02"/><path class="cls-2" d="M66.12,29.35h-34A8.62,8.62,0,0,0,23.45,38V72H39.33V53.85a8.62,8.62,0,0,1,8.62-8.62H66.12Z"/><polygon class="cls-2" points="156.94 72.02 169.92 72.02 175.91 72.02 188.9 72.02 198.39 89.5 175.91 89.5 169.92 89.5 147.45 89.5 156.94 72.02"/><path class="cls-2" d="M137.31,29.35h34A8.62,8.62,0,0,1,180,38V72H164.1V53.85a8.62,8.62,0,0,0-8.62-8.62H137.31Z"/><path class="cls-2" d="M89,18.49H75.14A9.16,9.16,0,0,0,66,27.66V48a9.17,9.17,0,0,0,9.16,9.17h53A9.17,9.17,0,0,0,137.31,48V27.66a9.16,9.16,0,0,0-9.17-9.17H114.27"/><polygon class="cls-2" points="46.49 183.02 33.51 183.02 27.52 183.02 14.53 183.02 5.04 200.5 27.52 200.5 33.51 200.5 55.98 200.5 46.49 183.02"/><path class="cls-2" d="M66.12,140.35h-34A8.62,8.62,0,0,0,23.45,149v34H39.33V164.85a8.62,8.62,0,0,1,8.62-8.62H66.12Z"/><polygon class="cls-2" points="156.94 183.02 169.92 183.02 175.91 183.02 188.9 183.02 198.39 200.5 175.91 200.5 169.92 200.5 147.45 200.5 156.94 183.02"/><path class="cls-2" d="M137.31,140.35h34A8.62,8.62,0,0,1,180,149v34H164.1V164.85a8.62,8.62,0,0,0-8.62-8.62H137.31Z"/><rect class="cls-2" x="65.98" y="129.49" width="71.33" height="38.67" rx="9.17" ry="9.17"/><circle class="cls-1" cx="101.65" cy="18.15" r="3.1" transform="translate(3.5 50.22) rotate(-28.22)"/><line class="cls-2" x1="66.12" y1="37.82" x2="101.65" y2="37.82"/><line class="cls-2" x1="106.06" y1="37.82" x2="115.56" y2="37.82"/><line class="cls-2" x1="66.12" y1="148.82" x2="101.65" y2="148.82"/><line class="cls-2" x1="106.06" y1="148.82" x2="115.56" y2="148.82"/></g></g></svg>