<svg xmlns="http://www.w3.org/2000/svg" viewBox="0 0 204.53 198.04"><defs><style>.cls-1{fill:#232681;}.cls-2{fill:none;stroke:#232681;stroke-miterlimit:10;stroke-width:6px;}</style></defs><title>Dumbell 3</title><g id="Layer_2" data-name="Layer 2"><g id="Layer_1-2" data-name="Layer 1"><path class="cls-1" d="M40.47,7H37.35V3.84a3.84,3.84,0,0,0-7.69,0V7H26.54a3.84,3.84,0,1,0,0,7.69h3.12v3.12a3.84,3.84,0,0,0,7.69,0V14.65h3.12a3.84,3.84,0,0,0,0-7.69Z"/><path class="cls-1" d="M198.95,41.69h-3.12V38.57a3.84,3.84,0,0,0-7.69,0v3.12H185a3.84,3.84,0,1,0,0,7.69h3.12V52.5a3.84,3.84,0,0,0,7.69,0V49.37h3.12a3.84,3.84,0,0,0,0-7.69Z"/><path class="cls-1" d="M12,178H9.93v-2.12a2.61,2.61,0,0,0-5.21,0V178H2.61a2.61,2.61,0,1,0,0,5.21H4.72v2.12a2.61,2.61,0,0,0,5.21,0v-2.12H12A2.61,2.61,0,0,0,12,178Z"/><rect class="cls-2" x="25.27" y="63.6" width="40.91" height="62.26" rx="15.57" ry="15.57" transform="translate(-39.36 32.88) rotate(-28.22)"/><rect class="cls-2" x="116.97" y="14.4" width="40.91" height="62.26" rx="15.57" ry="15.57" transform="translate(-5.2 70.39) rotate(-28.22)"/><rect class="cls-2" x="60.42" y="58.46" width="63.15" height="24.9" transform="translate(-22.6 51.93) rotate(-28.22)"/><line class="cls-2" x1="53" y1="126.16" x2="41.44" y2="104.61"/><line class="cls-2" x1="36.04" y1="94.55" x2="39.86" y2="101.67"/><line class="cls-2" x1="144.31" y1="77.17" x2="132.74" y2="55.61"/><line class="cls-2" x1="127.34" y1="45.56" x2="131.16" y2="52.67"/><rect class="cls-2" x="62.14" y="132.31" width="40.91" height="62.26" rx="15.57" ry="15.57" transform="translate(-67.46 58.48) rotate(-28.22)"/><rect class="cls-2" x="153.83" y="83.11" width="40.91" height="62.26" rx="15.57" ry="15.57" transform="translate(-33.3 95.99) rotate(-28.22)"/><polyline class="cls-2" points="144.64 145.29 162.57 135.67 150.8 113.72 95.16 143.58 106.93 165.53 124.86 155.91"/><line class="cls-2" x1="89.87" y1="194.87" x2="78.3" y2="173.31"/><line class="cls-2" x1="72.91" y1="163.26" x2="76.73" y2="170.38"/><line class="cls-2" x1="181.17" y1="145.87" x2="169.61" y2="124.32"/><line class="cls-2" x1="164.21" y1="114.26" x2="168.03" y2="121.38"/><circle class="cls-1" cx="134.59" cy="150.69" r="2.58" transform="translate(-55.25 81.54) rotate(-28.22)"/></g></g></svg>